<mxfile host="app.diagrams.net" modified="2024-04-29T14:31:43.668Z" agent="Mozilla/5.0 (Windows NT 10.0; Win64; x64) AppleWebKit/537.36 (KHTML, like Gecko) Chrome/124.0.0.0 Safari/537.36" etag="0TplOhgP6DrlfKu__e92" version="24.2.9" type="device">
  <diagram name="Страница 1" id="E2DFa0HPyrm99OXy56dG">
    <mxGraphModel dx="868" dy="950" grid="1" gridSize="10" guides="1" tooltips="1" connect="1" arrows="1" fold="1" page="1" pageScale="1" pageWidth="827" pageHeight="1169" math="0" shadow="0">
      <root>
        <mxCell id="0" />
        <mxCell id="1" parent="0" />
        <mxCell id="cgfGZUzm-Z3bvs19jUsZ-61" value="Запуск приложения" style="rounded=0;whiteSpace=wrap;html=1;" parent="1" vertex="1">
          <mxGeometry x="480" y="490" width="120" height="60" as="geometry" />
        </mxCell>
        <mxCell id="cgfGZUzm-Z3bvs19jUsZ-62" value="Войти в аккаунт" style="html=1;whiteSpace=wrap;" parent="1" vertex="1">
          <mxGeometry x="630" y="570" width="110" height="50" as="geometry" />
        </mxCell>
        <mxCell id="cgfGZUzm-Z3bvs19jUsZ-66" value="" style="edgeStyle=orthogonalEdgeStyle;rounded=0;orthogonalLoop=1;jettySize=auto;html=1;entryX=0.5;entryY=0;entryDx=0;entryDy=0;exitX=0.5;exitY=1;exitDx=0;exitDy=0;" parent="1" source="cgfGZUzm-Z3bvs19jUsZ-61" target="cgfGZUzm-Z3bvs19jUsZ-85" edge="1">
          <mxGeometry relative="1" as="geometry">
            <mxPoint x="540" y="1090" as="targetPoint" />
            <Array as="points">
              <mxPoint x="540" y="730" />
              <mxPoint x="540" y="730" />
            </Array>
            <mxPoint x="540" y="1010" as="sourcePoint" />
          </mxGeometry>
        </mxCell>
        <mxCell id="cgfGZUzm-Z3bvs19jUsZ-72" value="" style="ellipse;html=1;shape=endState;fillColor=#000000;strokeColor=#ff0000;" parent="1" vertex="1">
          <mxGeometry x="525" y="820" width="30" height="30" as="geometry" />
        </mxCell>
        <mxCell id="cgfGZUzm-Z3bvs19jUsZ-79" style="edgeStyle=orthogonalEdgeStyle;rounded=0;orthogonalLoop=1;jettySize=auto;html=1;entryX=0.5;entryY=0;entryDx=0;entryDy=0;" parent="1" source="cgfGZUzm-Z3bvs19jUsZ-80" target="cgfGZUzm-Z3bvs19jUsZ-61" edge="1">
          <mxGeometry relative="1" as="geometry" />
        </mxCell>
        <mxCell id="cgfGZUzm-Z3bvs19jUsZ-80" value="" style="ellipse;html=1;shape=startState;fillColor=#000000;strokeColor=#ff0000;" parent="1" vertex="1">
          <mxGeometry x="525" y="430" width="30" height="30" as="geometry" />
        </mxCell>
        <mxCell id="cgfGZUzm-Z3bvs19jUsZ-84" style="edgeStyle=orthogonalEdgeStyle;rounded=0;orthogonalLoop=1;jettySize=auto;html=1;entryX=0.5;entryY=0;entryDx=0;entryDy=0;" parent="1" source="cgfGZUzm-Z3bvs19jUsZ-85" target="cgfGZUzm-Z3bvs19jUsZ-72" edge="1">
          <mxGeometry relative="1" as="geometry" />
        </mxCell>
        <mxCell id="cgfGZUzm-Z3bvs19jUsZ-85" value="Выйти из приложения" style="rounded=0;whiteSpace=wrap;html=1;" parent="1" vertex="1">
          <mxGeometry x="480" y="730" width="120" height="60" as="geometry" />
        </mxCell>
        <mxCell id="sb8ScD8ZpTW-0OPXrxjZ-1" value="Регистрация" style="html=1;whiteSpace=wrap;" vertex="1" parent="1">
          <mxGeometry x="630" y="650" width="110" height="50" as="geometry" />
        </mxCell>
        <mxCell id="sb8ScD8ZpTW-0OPXrxjZ-3" value="" style="endArrow=none;html=1;rounded=0;" edge="1" parent="1">
          <mxGeometry width="50" height="50" relative="1" as="geometry">
            <mxPoint x="540" y="640" as="sourcePoint" />
            <mxPoint x="600" y="640" as="targetPoint" />
          </mxGeometry>
        </mxCell>
        <mxCell id="sb8ScD8ZpTW-0OPXrxjZ-6" value="" style="endArrow=none;html=1;rounded=0;" edge="1" parent="1">
          <mxGeometry width="50" height="50" relative="1" as="geometry">
            <mxPoint x="600" y="670" as="sourcePoint" />
            <mxPoint x="600" y="600" as="targetPoint" />
          </mxGeometry>
        </mxCell>
        <mxCell id="sb8ScD8ZpTW-0OPXrxjZ-7" value="" style="endArrow=classic;html=1;rounded=0;entryX=0;entryY=0.5;entryDx=0;entryDy=0;" edge="1" parent="1" target="cgfGZUzm-Z3bvs19jUsZ-62">
          <mxGeometry width="50" height="50" relative="1" as="geometry">
            <mxPoint x="600" y="600" as="sourcePoint" />
            <mxPoint x="510" y="760" as="targetPoint" />
          </mxGeometry>
        </mxCell>
        <mxCell id="sb8ScD8ZpTW-0OPXrxjZ-8" value="" style="endArrow=classic;html=1;rounded=0;entryX=0;entryY=0.5;entryDx=0;entryDy=0;" edge="1" parent="1" target="sb8ScD8ZpTW-0OPXrxjZ-1">
          <mxGeometry width="50" height="50" relative="1" as="geometry">
            <mxPoint x="600" y="670" as="sourcePoint" />
            <mxPoint x="510" y="760" as="targetPoint" />
          </mxGeometry>
        </mxCell>
      </root>
    </mxGraphModel>
  </diagram>
</mxfile>
